<svg version="1.1" id="Layer_1" xmlns="http://www.w3.org/2000/svg" xmlns:xlink="http://www.w3.org/1999/xlink" x="0px" y="0px"
	 width="100%" viewBox="0 0 902 905" enable-background="new 0 0 902 905" xml:space="preserve">
<path fill="#000000" opacity="1.000000" stroke="none" 
	d="
M427.108887,840.000000 
	C413.380890,838.341492 400.118195,836.810974 386.894653,834.995483 
	C365.132263,832.007507 344.050293,826.296814 323.317505,819.083252 
	C296.815277,809.862366 271.649048,797.944336 247.686478,783.339355 
	C229.653519,772.348511 212.475937,760.232666 196.732651,746.165894 
	C186.883804,737.365784 176.629532,728.853577 167.867599,719.042053 
	C154.966675,704.595703 142.978714,689.303711 131.110931,673.977783 
	C125.014069,666.104370 119.991508,657.395630 114.554367,649.018311 
	C113.615585,647.571838 113.031998,645.894836 112.129898,644.000000 
	C114.292618,644.000000 116.079567,644.000000 117.866508,644.000000 
	C225.697418,644.000000 333.528320,643.988953 441.359222,644.011047 
	C459.071014,644.014648 476.313477,641.002441 493.201569,635.932007 
	C514.316650,629.592468 533.857666,619.791260 551.498535,606.698853 
	C573.319580,590.504089 591.029846,570.441711 604.705200,546.828430 
	C613.625244,531.426331 619.977234,515.002258 624.423035,497.900604 
	C626.776855,488.845856 627.930908,479.415283 628.882141,470.078491 
	C629.767883,461.384064 630.133728,452.577026 629.907043,443.840851 
	C629.361084,422.794556 624.693665,402.529297 617.397461,382.808746 
	C610.747070,364.833435 601.182251,348.424744 589.572937,333.374329 
	C578.248718,318.693390 564.906799,305.869415 549.660156,295.066101 
	C532.860901,283.162659 514.973816,273.377533 495.165741,267.816132 
	C482.784607,264.339966 469.993652,262.146942 457.265350,260.151154 
	C449.812378,258.982544 442.121429,259.047485 434.537201,259.042969 
	C327.872986,258.979675 221.208710,259.000000 114.544449,259.000000 
	C112.762390,259.000000 110.980339,259.000000 108.080093,259.000000 
	C111.882812,252.450150 114.868996,246.437439 118.645874,240.971069 
	C128.381622,226.880234 137.545181,212.240448 148.650909,199.289398 
	C161.948669,183.782104 176.350479,169.051636 191.526993,155.375000 
	C205.605209,142.688110 220.768967,131.001419 236.453903,120.344933 
	C267.867035,99.002579 302.113434,83.078705 338.539398,72.382332 
	C356.115234,67.221245 374.186981,63.556980 392.219360,60.213818 
	C403.274689,58.164188 414.663635,57.679344 425.934021,57.085194 
	C439.166870,56.387585 452.458313,55.680073 465.678894,56.179459 
	C479.543701,56.703175 493.365051,58.552696 507.186951,59.999043 
	C535.085327,62.918362 561.900330,70.407814 588.094360,80.091957 
	C599.805420,84.421616 611.125671,89.827866 622.549194,94.912041 
	C648.755676,106.575615 672.489441,122.339325 695.083130,139.787201 
	C704.813538,147.301468 713.842102,155.794418 722.700256,164.349380 
	C732.265625,173.587341 741.713440,183.024628 750.402039,193.075638 
	C765.758118,210.839691 779.150757,230.057571 791.096924,250.324860 
	C806.423767,276.327667 818.689087,303.669189 827.035095,332.616730 
	C831.841248,349.286743 835.179749,366.387268 838.971985,383.340271 
	C843.059937,401.615723 843.295715,420.195831 843.064209,438.818024 
	C842.988586,444.898224 844.088501,451.000519 843.904907,457.070190 
	C843.581909,467.749817 842.966492,478.439148 841.946472,489.073853 
	C840.984680,499.100616 839.750183,509.138367 837.896667,519.032837 
	C835.675537,530.889648 833.090637,542.713989 829.922180,554.350586 
	C822.389099,582.016846 811.690247,608.461792 798.032471,633.695740 
	C787.028870,654.025940 774.975647,673.716248 759.989685,691.354004 
	C747.846863,705.645447 735.551636,719.917908 722.170349,733.020508 
	C702.512573,752.269043 680.860840,769.331848 656.835327,782.846191 
	C638.100891,793.384216 618.890808,803.234131 599.268982,811.994324 
	C578.294739,821.358398 556.244995,828.045105 533.528320,831.922852 
	C517.372620,834.680603 501.137390,837.172424 484.841522,838.848145 
	C471.081207,840.263245 457.187531,840.491150 443.342804,840.919617 
	C438.106964,841.081665 432.842957,840.333313 427.108887,840.000000 
z"/>
<path fill="#000000" opacity="1.000000" stroke="none" 
	d="
M334.000000,560.000000 
	C249.352936,560.000000 165.205811,559.964050 81.058975,560.105774 
	C76.837570,560.112915 74.818840,558.989441 73.971214,554.841797 
	C70.421318,537.471069 66.378967,520.194885 63.158104,502.765656 
	C61.676842,494.750061 61.386234,486.472656 61.063519,478.293976 
	C60.501648,464.054260 59.680485,449.776062 60.180664,435.556641 
	C60.697456,420.865051 62.027473,406.131592 64.161903,391.586731 
	C66.383888,376.445221 70.121590,361.530823 72.881531,346.459442 
	C73.409889,343.574219 74.496300,342.789978 77.040955,342.989838 
	C77.868988,343.054840 78.706436,343.000000 79.539574,343.000000 
	C200.844650,343.000000 322.149841,342.920074 443.454620,343.119019 
	C456.101196,343.139771 468.346283,346.456970 480.047485,351.501007 
	C494.597382,357.773010 507.275879,366.675873 517.866821,378.423370 
	C531.443298,393.482300 540.413208,410.946259 543.929626,430.982605 
	C545.054993,437.394440 545.773865,443.944855 545.920898,450.449036 
	C546.449890,473.857086 539.630737,495.237885 526.149658,514.197937 
	C509.257904,537.954651 486.312592,552.832703 457.438324,557.925842 
	C450.543396,559.142029 443.471222,559.868530 436.475220,559.909668 
	C402.484467,560.109619 368.491913,560.000000 334.000000,560.000000 
z"/>
</svg>